<svg width="1275" height="689" xmlns="http://www.w3.org/2000/svg" xmlns:xlink="http://www.w3.org/1999/xlink" overflow="hidden"><defs><filter id="fx0" x="-10%" y="-10%" width="120%" height="120%" filterUnits="userSpaceOnUse" primitiveUnits="userSpaceOnUse"><feComponentTransfer color-interpolation-filters="sRGB"><feFuncR type="discrete" tableValues="0 0"/><feFuncG type="discrete" tableValues="0 0"/><feFuncB type="discrete" tableValues="0 0"/><feFuncA type="linear" slope="0.4" intercept="0"/></feComponentTransfer><feGaussianBlur stdDeviation="2.78764 2.78764"/></filter><clipPath id="clip1"><rect x="-83" y="65" width="1275" height="689"/></clipPath><clipPath id="clip2"><rect x="54" y="213" width="343" height="326"/></clipPath><clipPath id="clip3"><rect x="54" y="213" width="343" height="326"/></clipPath><clipPath id="clip4"><rect x="54" y="213" width="1228" height="326"/></clipPath><clipPath id="clip5"><rect x="194" y="189" width="207" height="227"/></clipPath><clipPath id="clip6"><rect x="0" y="0" width="595" height="689"/></clipPath></defs><g clip-path="url(#clip1)" transform="translate(83 -65)"><g clip-path="url(#clip2)"><g clip-path="url(#clip3)"><g clip-path="url(#clip4)"><path d="M92.7504 7.10549 235.334 7.10549C281.946 7.10549 319.747 44.9067 319.747 91.5187L319.747 234.102C319.747 280.714 281.946 318.516 235.334 318.516L92.7504 318.516C46.1383 318.516 8.33711 280.714 8.33711 234.102L8.33711 91.5187C8.33711 44.9067 46.1383 7.10549 92.7504 7.10549Z" stroke="#F4F4F4" stroke-width="1.8948" stroke-miterlimit="10" fill="#F4F4F4" transform="matrix(1.00469 0 0 1 54.2735 213)"/><path d="M156.7 272.661C150.447 272.661 144.289 272.472 138.32 272.093 132.352 271.714 126.478 271.146 120.699 270.388 114.92 269.63 109.33 268.777 104.024 267.83 98.719 266.882 93.603 265.745 88.6765 264.419L88.6765 220.649C95.1189 221.218 102.035 221.691 109.519 222.07 117.004 222.449 124.583 222.734 132.257 222.923 139.931 223.112 147.036 223.207 153.668 223.207 158.879 223.302 164.184 222.828 169.3 221.786 173.469 220.839 176.595 219.323 178.679 217.239 180.764 215.154 181.806 212.312 181.806 208.712L181.806 205.301C181.806 201.133 180.385 198.006 177.448 195.922 174.416 193.838 170.721 192.701 167.026 192.796L152.058 192.796C130.078 192.796 113.404 187.964 102.035 178.3 90.6661 168.637 84.9817 152.436 84.9817 129.699L84.9817 120.32C84.9817 99.4769 91.2345 83.8448 103.74 73.6129 116.246 63.381 134.246 58.1703 157.742 58.1703 166.174 58.1703 174.511 58.5493 182.943 59.4019 190.806 60.2546 198.196 61.2967 205.112 62.5283 212.028 63.76 218.281 64.9916 223.776 66.3179L223.776 110.088C215.06 109.33 205.207 108.667 194.312 108.193 183.416 107.719 173.563 107.435 164.563 107.435 159.826 107.435 155.089 107.814 150.352 108.572 146.184 109.33 142.963 110.846 140.689 113.119 138.415 115.393 137.278 118.709 137.278 123.067L137.278 125.909C137.278 130.646 138.794 134.246 141.826 136.71 144.857 139.173 149.5 140.405 155.752 140.405L174.511 140.405C187.774 140.405 198.764 142.868 207.575 147.889 216.102 152.626 223.018 159.731 227.471 168.353 231.923 176.974 234.102 186.732 234.197 197.722L234.197 207.101C234.197 225.102 231.071 238.839 224.818 248.313 218.565 257.787 209.659 264.23 198.101 267.451 186.638 270.956 172.806 272.661 156.7 272.661Z" fill="#4E5CA6" transform="matrix(1.00469 0 0 1 54.2735 213)"/><path d="M88.7713 220.649C85.8344 225.576 83.9396 231.165 83.1816 236.85 82.0448 246.418 84.0343 256.082 88.7713 264.419L88.7713 220.649Z" fill="#4E5CA6" transform="matrix(1.00469 0 0 1 54.2735 213)"/><path d="M445.467 252.103C407.761 252.103 384.928 231.45 382.939 200.28L407.382 200.28C408.424 220.081 421.119 232.965 445.088 232.965 464.889 232.965 479.763 223.586 479.763 207.48 479.763 194.406 471.236 187.869 453.141 183.985L430.498 179.627C408.518 175.269 388.434 164.184 388.434 137.562 388.434 111.225 411.55 91.3293 443.951 91.3293 476.352 91.3293 501.079 111.13 502.974 142.299L478.531 142.299C477.205 123.541 463.752 110.467 444.141 110.467 423.866 110.467 412.782 122.404 412.782 135.952 412.782 150.731 425.666 156.037 440.256 159.068L463.373 163.616C490.184 169.111 505.248 180.858 505.248 204.164 505.153 231.45 483.363 252.103 445.467 252.103Z" fill="#FFFFFF" transform="matrix(1.00469 0 0 1 54.2735 213)"/><path d="M596.293 248.029C589.566 251.061 583.693 252.198 576.682 252.198 555.365 252.198 540.491 240.639 540.491 215.154L540.491 153.289 515.006 153.289 515.006 134.531 540.491 134.531 540.491 100.33 562.471 100.33 562.471 134.531 597.335 134.531 597.335 153.289 562.471 153.289 562.471 210.133C562.471 226.049 570.05 231.734 581.893 231.734 587.103 231.734 591.745 230.881 596.293 228.702L596.293 248.029Z" fill="#FFFFFF" transform="matrix(1.00469 0 0 1 54.2735 213)"/><path d="M610.03 192.227C610.03 158.026 633.999 132.352 666.685 132.352 699.37 132.352 723.339 158.026 723.339 192.227 723.339 226.428 699.37 252.103 666.685 252.103 633.999 252.103 610.03 226.428 610.03 192.227ZM700.602 192.227C700.602 166.932 685.538 151.963 666.59 151.963 647.642 151.963 632.863 166.932 632.863 192.227 632.863 217.523 647.642 232.776 666.685 232.776 685.727 232.776 700.602 217.523 700.602 192.227Z" fill="#FFFFFF" transform="matrix(1.00469 0 0 1 54.2735 213)"/><path d="M745.698 249.924 745.698 134.436 766.162 134.436 766.162 153.573C774.025 140.31 786.436 132.257 802.352 132.257 819.311 132.257 832.195 140.973 837.406 156.226 845.459 141.447 858.722 132.257 876.439 132.257 900.219 132.257 915.472 147.7 915.472 175.174L915.472 249.924 893.492 249.924 893.492 182.185C893.492 163.047 884.965 151.679 868.86 151.679 853.796 151.679 841.669 164.279 841.669 183.701L841.669 249.924 819.69 249.924 819.69 182.185C819.69 163.047 811.163 151.679 795.057 151.679 779.804 151.679 767.867 164.279 767.867 183.701L767.867 249.924 745.698 249.924Z" fill="#FFFFFF" transform="matrix(1.00469 0 0 1 54.2735 213)"/><path d="M1014.85 232.113C1007.65 244.997 994.769 252.198 977.81 252.198 953.841 252.198 938.115 238.46 938.115 217.333 938.115 194.691 956.21 182.943 990.6 182.943 997.327 182.943 1002.82 183.132 1012.2 184.269L1012.2 175.743C1012.2 159.163 1003.3 149.784 988.042 149.784 971.937 149.784 962.084 159.353 961.421 175.458L941.336 175.458C942.473 149.5 960.947 132.352 987.948 132.352 1016.46 132.352 1033.04 148.457 1033.04 175.932L1033.04 250.019 1014.76 250.019 1014.76 232.113ZM982.169 236.471C1000.64 236.471 1012.2 224.913 1012.2 207.291L1012.2 197.912C1003.67 196.775 997.611 196.585 991.927 196.585 969.947 196.585 959.052 203.122 959.052 216.67 959.052 228.607 967.958 236.471 982.169 236.471Z" fill="#FFFFFF" transform="matrix(1.00469 0 0 1 54.2735 213)"/><path d="M1084.58 249.924 1062.6 249.924 1062.6 134.436 1083.07 134.436 1083.07 153.573C1090.93 140.689 1104 132.257 1119.92 132.257 1143.7 132.257 1159.33 147.51 1159.33 175.174L1159.33 249.924 1137.35 249.924 1137.35 182.564C1137.35 162.763 1128.64 151.584 1112.25 151.584 1097.18 151.584 1084.58 164.184 1084.58 184.743L1084.58 249.924Z" fill="#FFFFFF" transform="matrix(1.00469 0 0 1 54.2735 213)"/></g></g></g><rect x="119" y="255" width="222" height="242" fill="#F4F4F4"/><g clip-path="url(#clip5)" filter="url(#fx0)" transform="translate(-83 64)"><g clip-path="url(#clip6)"><path d="M187.07-15.2646C188.316-11.5264 189.095-8.56689 189.406-6.38623 189.718-4.20557 189.302-2.57007 188.16-1.47974 187.018-0.389404 184.993 0.285563 182.085 0.545166 179.178 0.804769 175.18 0.93457 170.092 0.93457 164.796 0.93457 160.668 0.856689 157.709 0.700928 154.749 0.545166 152.491 0.233643 150.933-0.233643 149.375-0.700928 148.285-1.34993 147.662-2.18066 147.039-3.01139 146.52-4.10173 146.104-5.45166L132.553-45.9497 56.853-45.9497 44.0806-6.54199C43.6652-5.08822 43.12-3.86808 42.4451-2.88159 41.7701-1.8951 40.6798-1.11629 39.1741-0.545166 37.6684 0.0259603 35.5396 0.415365 32.7878 0.623047 30.0361 0.830729 26.4276 0.93457 21.9624 0.93457 17.1857 0.93457 13.4474 0.778809 10.7476 0.467285 8.04769 0.155762 6.17855-0.597087 5.14014-1.79126 4.10173-2.98543 3.73828-4.67285 4.0498-6.85352 4.36133-9.03418 5.14014-11.9417 6.38623-15.5762L68.5352-194.391C69.1582-196.156 69.8851-197.584 70.7158-198.674 71.5465-199.764 72.8705-200.595 74.6877-201.166 76.505-201.737 79.0231-202.101 82.2422-202.257 85.4613-202.412 89.7188-202.49 95.0146-202.49 101.141-202.49 106.022-202.412 109.656-202.257 113.291-202.101 116.12-201.737 118.145-201.166 120.17-200.595 121.624-199.738 122.507-198.596 123.389-197.454 124.142-195.896 124.765-193.923ZM94.5474-163.083 94.3916-163.083 65.8872-77.4136 123.052-77.4136Z" fill="#4E5CA6" transform="translate(200.859 404)"/></g></g><text fill="#4E5CA6" font-family="Calibri,Calibri_MSFontService,sans-serif" font-weight="700" font-size="319" transform="translate(115.074 465)">A</text><text fill="#FFFFFF" font-family="Calibri,Calibri_MSFontService,sans-serif" font-weight="400" font-size="184" transform="translate(419.794 420)">Anubhav</text></g></svg>